<?xml version="1.0" encoding="UTF-8"?>
<svg width="512" height="512" viewBox="0 0 24 24" fill="none" xmlns="http://www.w3.org/2000/svg">
  <path d="M22 12C22 17.5228 17.5228 22 12 22C6.47715 22 2 17.5228 2 12C2 6.47715 6.47715 2 12 2C17.5228 2 22 6.47715 22 12Z" stroke="currentColor" stroke-width="2"/>
  <path d="M17 9L13.9558 11.5662C12.841 12.4662 11.159 12.4662 10.0442 11.5662L7 9" stroke="currentColor" stroke-width="2" stroke-linecap="round" stroke-linejoin="round"/>
  <path d="M19 7.4V16.6C19 16.8209 18.8209 17 18.6 17H5.4C5.17909 17 5 16.8209 5 16.6V7.4C5 7.17909 5.17909 7 5.4 7H18.6C18.8209 7 19 7.17909 19 7.4Z" stroke="currentColor" stroke-width="2"/>
  <path d="M12 13V15" stroke="currentColor" stroke-width="2" stroke-linecap="round"/>
  <path d="M15 14.5L14 13" stroke="currentColor" stroke-width="2" stroke-linecap="round"/>
  <path d="M9 14.5L10 13" stroke="currentColor" stroke-width="2" stroke-linecap="round"/>
</svg>
